<?xml version="1.0" encoding="UTF-8" standalone="no"?>
<!-- Created with Inkscape (http://www.inkscape.org/) -->

<svg
   width="32"
   height="32"
   viewBox="0 0 8.4666663 8.4666668"
   version="1.1"
   id="svg5"
   xml:space="preserve"
   inkscape:version="1.2.2 (732a01da63, 2022-12-09)"
   sodipodi:docname="favicon.svg"
   xmlns:inkscape="http://www.inkscape.org/namespaces/inkscape"
   xmlns:sodipodi="http://sodipodi.sourceforge.net/DTD/sodipodi-0.dtd"
   xmlns="http://www.w3.org/2000/svg"
   xmlns:svg="http://www.w3.org/2000/svg"><sodipodi:namedview
     id="namedview7"
     pagecolor="#ffffff"
     bordercolor="#666666"
     borderopacity="1.0"
     inkscape:showpageshadow="2"
     inkscape:pageopacity="0.0"
     inkscape:pagecheckerboard="0"
     inkscape:deskcolor="#d1d1d1"
     inkscape:document-units="mm"
     showgrid="false"
     inkscape:zoom="5.8004853"
     inkscape:cx="13.61955"
     inkscape:cy="29.566492"
     inkscape:window-width="1260"
     inkscape:window-height="770"
     inkscape:window-x="-6"
     inkscape:window-y="-6"
     inkscape:window-maximized="1"
     inkscape:current-layer="svg5"
     inkscape:lockguides="false" /><defs
     id="defs2" /><g
     id="g311"
     transform="matrix(0.20881058,0,0,0.20881058,3.0336963,9.1155658)"><path
       id="path319"
       style="display:inline;fill:#fdd3ba;stroke-width:0.0694444"
       d="m 9.9118203,-34.188788 c -2.2564977,0.188864 -5.9057291,0.616029 -7.1429313,0.868236 -0.6691024,-0.02706 -0.8332915,0.07368 -2.85437722,0.249115 0.27451722,-0.803633 -1.66629108,-0.596368 -2.48866788,-0.392751 -0.7500936,0.454554 -1.0165494,2.408648 -1.3443724,3.676056 -1.4706303,0.419769 -1.9983913,2.5867 -2.5588484,4.146268 -0.6785031,-0.566268 -1.3567182,-1.277792 -1.3772992,-1.277792 -0.1708609,0 -1.1865865,1.331261 -2.1020853,2.894865 -0.9154986,1.563604 1.7979462,4.984429 4.4642178,4.698989 1.1379159,1.033328 1.7109191,3.14235 2.8301383,4.266458 3.7317225,3.030302 4.3614681,3.322276 6.2460537,4.448934 0.081603,0.9568312 -1.0550963,0.6643351 0.246326,1.608356 0.5303533,0.3847057 3.6344893,0.4510137 3.6104543,-0.1405496 -0.054208,-1.3341864 1.3668167,-1.6762334 1.861521,-2.5734194 2.7418043,-1.651271 5.9883443,-4.097732 7.4011873,-7.054532 1.594517,-0.748158 2.527105,-0.940738 4.081364,-2.458456 0.967408,-2.607799 0.435909,-4.038658 -1.549689,-5.486258 l -1.46172,0.999586 c -0.552691,-1.771604 -1.090923,-3.445074 -2.537497,-4.021082 -0.637784,-1.713025 -0.846001,-2.145537 -1.254582,-3.551945 -1.346097,-1.701591 -0.504693,-1.324866 -4.0691927,-0.900078 z M 3.5847464,-7.6321119 c -2.5683523,0.3443245 -3.16597607,1.196711 -5.2219764,1.4730875 -1.742173,0.454534 -2.3812019,1.2834556 -2.9920326,2.7816746 v 0.2697532 l 8.8795807,-0.014849 C 8.0362472,-3.1470406 12.24331,-3.0438287 15.828427,-3.1622083 15.545158,-4.3939374 15.199856,-4.9626926 14.313019,-5.6795777 13.158086,-6.4623684 11.626907,-7.0312326 9.1686583,-7.1821137 7.5817703,-7.2795127 6.828631,-7.247546 5.8791514,-7.4762825 5.3104075,-7.6132974 3.9960642,-7.6477837 3.5847464,-7.6321119 Z"
       sodipodi:nodetypes="ccccccszcccsscccccccccccccccssc" /><path
       style="display:inline;fill:#928485;stroke-width:0.0694444"
       d="m -6.8139823,-26.421039 c -0.2344188,-0.456197 -0.5448132,-0.812327 -0.8002063,-0.918115 l -0.1978951,-0.08197 -0.1269,-1.332837 c -0.1534903,-1.612124 -0.1547785,-3.049516 -0.00351,-3.914691 0.3878833,-2.21846 1.470409,-3.919533 3.650559,-5.736464 0.5553055,-0.46279 0.8615187,-0.647858 1.9347125,-1.169296 0.7012444,-0.340716 1.68210971,-0.857054 2.17970138,-1.147418 1.81193472,-1.057332 3.20223192,-1.635514 4.52736322,-1.882788 0.9776604,-0.182435 3.1126,-0.161091 4.0480611,0.04047 2.5157485,0.542064 4.3994665,1.916506 5.3730315,3.920396 0.152596,0.314089 0.17154,0.327786 0.453373,0.327786 0.819078,0 1.937725,0.412262 2.713173,0.999903 1.263925,0.957815 2.12558,2.800436 2.386298,5.103034 0.106147,0.937459 0.04895,2.93653 -0.113137,3.953937 -0.11356,0.712823 -0.141829,0.794745 -0.303484,0.879492 -0.545708,0.362761 -0.701172,0.796417 -1.02876,1.299055 l -0.05062,-0.544794 c -0.06271,-0.674952 -0.319426,-1.708587 -0.525173,-2.114562 -0.357717,-0.705841 -1.62776,-1.056761 -2.358235,-1.287023 -0.453053,-0.142813 0.327449,-0.204029 -0.07087,-1.729053 -0.159254,-0.60973 -0.369239,-1.311725 -0.466634,-1.559989 -0.514747,-1.312108 -1.340465,-1.882086 -2.310375,-1.594813 -0.768618,0.227653 -1.695113,0.349707 -4.4787089,0.590013 -1.8332222,0.158261 -3.9229993,0.454894 -4.46415,0.633664 -0.065551,0.02165 0.042522,-0.112543 0.2401618,-0.298218 0.371282,-0.348805 0.6254681,-0.69537 0.5588639,-0.761974 -0.020957,-0.02096 -0.4392528,0.149287 -0.9295451,0.378319 -1.1513875,0.537854 -1.882266,0.826062 -2.41115419,0.95079 -0.69127292,0.163025 -0.72497986,0.148008 -0.43305278,-0.19292 0.23051111,-0.269204 0.56920278,-0.815972 0.50544861,-0.815972 -0.014591,0 -0.22969444,0.09212 -0.47800902,0.204711 -0.36594584,0.165928 -1.70133682,0.559178 -1.89884512,0.559178 -0.026951,0 0.090565,-0.149209 0.2611479,-0.331575 0.3416153,-0.365215 0.57796874,-0.697461 0.53016666,-0.745264 -0.0773465,-0.07735 -0.97175346,0.132865 -1.39842156,0.32867 -1.1217541,0.514789 -1.7381222,1.69231 -1.8328514,3.501512 l -0.040536,0.774177 -0.3949729,0.07771 c -1.087116,0.213877 -1.6878861,1.1268 -1.8775535,2.853107 -0.044062,0.401042 -0.1031368,0.822917 -0.1312777,0.9375 l -0.051166,0.208333 z"
       id="path317"
       sodipodi:nodetypes="cscscssssssssssccssssssscssssssssssssccsscc" /><path
       id="path315"
       style="display:inline;fill:#1c6b99;stroke-width:0.0694444"
       d="m 10.316052,-11.52439 -0.4801114,0.30935 c -0.2648303,0.170326 -0.7313858,0.444184 -1.036941,0.6088 -0.3055553,0.164617 -0.5723801,0.312789 -0.5914771,0.329149 -8.66e-5,7.4e-5 7.35e-5,0.0024 0,0.0025 -0.1045069,-0.0564 -0.016466,1.0699688 0.1831352,2.4970723 l 0.032172,0.2252068 h 0.4504135 c 0.6186293,0 1.6627408,0.1185424 2.4945978,0.2846019 0.756398,0.1509958 2.162243,0.5967644 2.583691,0.8191586 0.145467,0.076761 0.28621,0.1418484 0.3143,0.1435384 0.163802,0.00984 -1.588194,-3.88963 -1.930344,-4.296252 -0.129865,-0.154337 -0.391606,-0.347704 -0.537031,-0.405867 -0.206552,-0.201351 -0.719786,-0.294258 -1.044366,-0.398443 z m -9.35474249,0.128689 -0.38111912,0.08167 c -0.20328548,0.04264 -0.90940286,0.339699 -1.0171426,0.376169 -0.10773974,0.03647 -0.24990832,0.13745 -0.34647194,0.19056 -0.29002745,0.199545 -0.37284765,0.324364 -0.83153265,1.2745216 -0.4629106,0.9589096 -0.9863883,2.1510027 -1.3487657,3.073701 l -0.1385888,0.3563712 0.4999095,-0.1930344 c 0.6570534,-0.2544497 1.4482701,-0.4138163 2.073882,-0.4157663 0.50143631,-0.00156 0.509462,-0.00329 0.61622508,-0.2252068 0.14948666,-0.3107261 0.56861447,-0.5069282 1.29679492,-0.6038511 0.3340782,-0.044467 0.8134967,-0.1398598 1.0641638,-0.2128327 l 0.4553631,-0.1336392 0.081668,-0.6780951 c 0.045084,-0.3734663 0.084338,-1.6640922 0.1088912,-1.7595822 0.00826,-0.03211 -0.018477,0.0053 -0.05692,0.06682 l -0.4330899,-0.23758 C 2.3445295,-10.578941 1.8694791,-10.854514 1.547837,-11.046754 Z"
       sodipodi:nodetypes="ccsscccssscsccccczcscccssscccscccc" /><path
       style="display:inline;fill:#040404;stroke-width:0.0694444;stroke:none"
       d="m -5.1252393,-3.1509171 c 0,-0.023826 0.1378847,-0.4222632 0.3064104,-0.8854167 1.2626076,-3.4699779 2.5543451,-6.4125742 3.111934,-7.0890252 0.3132035,-0.37997 1.12930279,-0.834669 2.1356264,-1.189888 0.0621188,-0.02193 -0.14332361,-0.166393 -0.52083333,-0.366245 -2.34621807,-1.242084 -4.01441457,-2.969855 -5.20966807,-5.395716 l -0.3785125,-0.768221 -0.5384507,-0.01187 c -1.1613798,-0.02559 -2.1148542,-0.442119 -2.9703285,-1.297592 -0.9125974,-0.912599 -1.2903094,-1.836401 -1.2924464,-3.161045 -0.002,-1.26066 0.403716,-2.219817 1.3219582,-3.125 0.5067528,-0.499546 0.5263528,-0.530767 0.4795445,-0.763889 -0.099538,-0.495732 -0.2673639,-2.912899 -0.2660438,-3.831781 0.0025,-1.739024 0.246457,-2.849585 0.9354681,-4.258497 0.5248035,-1.073136 1.0834125,-1.846746 1.9812451,-2.743803 1.1154542,-1.114489 1.6994139,-1.535713 3.0568743,-2.204997 0.6684028,-0.329551 1.7152778,-0.88586 2.32638893,-1.236243 2.22135627,-1.273626 3.30746597,-1.717665 4.93762567,-2.018671 0.9703931,-0.179181 3.0556452,-0.179056 4.0207077,2.08e-4 2.6182463,0.486441 4.7818013,1.895477 5.9392723,3.868007 0.121714,0.207423 0.227245,0.38379 0.234513,0.391928 0.0073,0.0081 0.27739,0.0677 0.60027,0.132347 1.157731,0.231823 2.037309,0.690118 2.84969,1.484801 1.492204,1.459697 2.248693,3.552984 2.333964,6.458334 0.03818,1.300918 -0.06283,2.618758 -0.280653,3.661466 l -0.09031,0.4323 0.400213,0.310793 c 1.052873,0.81763 1.673228,2.122462 1.671107,3.514942 -0.0027,1.800245 -1.126123,3.440913 -2.802686,4.09325 -0.534188,0.207848 -1.479088,0.362535 -1.818362,0.297679 -0.163363,-0.03123 -0.197804,0.01103 -0.445531,0.546612 -1.153862,2.494649 -3.080919,4.497961 -5.50335,5.721118 l -0.518695,0.261904 0.451389,0.15319 c 0.656248,0.222715 1.279759,0.555024 1.551776,0.827041 0.548284,0.548284 2.34028,4.6198206 3.418257,7.766511 l 0.160582,0.46875 h -0.472466 -0.472467 l -0.03554,-0.4427202 C 15.36383,-5.0378991 13.830445,-6.1238381 11.124761,-6.636979 10.323732,-6.7888964 9.9619253,-6.8266152 8.3122607,-6.9301874 7.0814725,-7.007461 6.6281357,-7.0721485 5.6039273,-7.316643 4.5981475,-7.5567381 4.1543933,-7.5381263 3.1246496,-7.2126589 2.654919,-7.0641929 1.9443287,-6.8915735 1.54556,-6.8290603 c -0.3987695,0.062514 -0.73681253,0.1254396 -0.75120767,0.1398347 -0.0540924,0.054092 0.54944377,0.1087139 1.99707497,0.1807403 1.6446528,0.081829 4.5285973,0.4567493 5.5984993,0.7278188 0.6820278,0.1727979 3.3374234,1.169484 4.0195564,1.5087153 0.619205,0.3079368 0.9375,0.6549264 0.9375,1.0220167 0,0.1216201 -0.04386,0.1423375 -0.301353,0.1423375 -0.256179,0 -0.313533,-0.026732 -0.382605,-0.1783285 C 12.561451,-3.508856 11.772668,-3.8873317 10.082788,-4.5239818 8.4852225,-5.1258533 7.8921607,-5.2687589 5.7775384,-5.5613839 3.7802753,-5.8377693 0.12566622,-6.0769658 -0.76015392,-5.9892811 -2.2658136,-5.8402394 -3.5420817,-5.227204 -3.8949859,-4.4835144 c -0.1379548,0.2907188 -0.3274757,0.9949757 -0.3274757,1.2168966 0,0.1494215 -0.027248,0.1590208 -0.4513888,0.1590208 -0.2482639,0 -0.4513889,-0.019494 -0.4513889,-0.04332 z m 3.5561,-3.388255 c 0.2943965,-0.060551 0.76314649,-0.1108014 1.04166663,-0.1116687 0.50143681,-0.00156 0.50745695,-0.00377 0.61422014,-0.2256945 0.14948681,-0.3107264 0.57047292,-0.5062611 1.29865413,-0.603184 0.3340785,-0.044467 0.8125056,-0.1405542 1.063173,-0.2135271 l 0.4557576,-0.1326785 0.081972,-0.6790306 c 0.045084,-0.3734667 0.1020597,-0.7571556 0.1266125,-0.8526417 0.049676,-0.1931903 0.086335,-0.2215541 -0.9288903,0.7187257 L 1.7502357,-8.2371048 0.66127872,-9.5786007 c -0.59892639,-0.7378233 -1.0968368,-1.3523213 -1.10646805,-1.3655513 -0.009631,-0.01323 -0.16214028,0.07545 -0.33890834,0.197071 -0.29002773,0.199545 -0.37100903,0.323897 -0.82969443,1.274056 -0.4629111,0.9589105 -0.9863153,2.1522425 -1.3486931,3.0749418 l -0.1395576,0.3553479 0.4988181,-0.1931729 c 0.2743506,-0.1062444 0.7396888,-0.2427132 1.0340854,-0.3032639 z M 14.173571,-6.6666249 c -0.637517,-1.6185035 -1.571089,-3.6164111 -1.838176,-3.9338261 -0.154606,-0.183739 -0.498631,-0.423813 -0.60732,-0.423813 -0.01572,0 -0.52245,0.607982 -1.126065,1.3510717 L 9.5045294,-8.3221215 9.1167287,-8.6592395 C 8.9034377,-8.8446541 8.6508023,-9.0805062 8.5553162,-9.1833541 8.4598301,-9.286202 8.3344683,-9.395843 8.2767343,-9.4270006 c -0.104507,-0.0564 -0.085181,0.2221597 0.1144201,1.6492646 l 0.031567,0.2256944 h 0.4509792 c 0.6186298,0 1.6622574,0.1194806 2.4941154,0.2855403 0.756398,0.1509959 2.161288,0.5963611 2.582737,0.8187556 0.145467,0.076761 0.287467,0.1409472 0.315556,0.1426347 0.02809,0.00169 -0.01355,-0.160993 -0.09254,-0.3615139 z m -6.7043659,-1.25 c -0.095931,-0.9066611 -0.094508,-0.9019077 -0.2559576,-0.8549209 -0.8551695,0.2488834 -1.4378,0.3287612 -2.1301535,0.2920417 -0.4010417,-0.021269 -0.8307292,-0.06911 -0.9548611,-0.1063125 -0.124132,-0.037202 -0.2256945,-0.042479 -0.2256945,-0.011724 0,0.030753 -0.01861,0.1489667 -0.041355,0.2626951 l -0.041356,0.2067792 0.5795507,0.00152 c 0.3917563,0.00103 0.8833313,0.070496 1.51705,0.2143855 0.515625,0.117075 1.03125,0.2256889 1.1458334,0.2413639 0.456977,0.062515 0.4406159,0.072399 0.4069436,-0.245828 z M 5.9511496,-9.0134902 c 0.2673611,-0.038395 0.6657986,-0.1200188 0.8854166,-0.1813868 0.4672202,-0.1305556 0.488232,-0.2000771 0.2543445,-0.841538 -0.079728,-0.218664 -0.1612049,-0.451139 -0.1810598,-0.516611 -0.028213,-0.09303 0.090693,-0.180446 0.5442667,-0.400109 0.3192007,-0.154589 0.519525,-0.263703 0.4451653,-0.242477 -1.94575,0.555415 -2.7801833,0.524908 -4.8274764,-0.176498 -0.3232215,-0.110736 -0.5971653,-0.191849 -0.6087632,-0.180251 -0.011598,0.0116 0.4091063,0.233287 0.9348986,0.492643 0.5257917,0.259356 0.9665361,0.480338 0.9794313,0.491071 0.012895,0.01073 -0.055295,0.248548 -0.1515327,0.528478 -0.096238,0.2799281 -0.1849139,0.6027107 -0.1970569,0.717294 -0.021291,0.2009035 -0.00846,0.2111903 0.359866,0.2884424 0.4883361,0.1024243 0.9518423,0.1086368 1.5625,0.020942 z M 2.541228,-9.679209 3.0773315,-10.174432 2.6045183,-10.435274 c -0.2600472,-0.143463 -0.7359757,-0.418129 -1.057618,-0.610369 l -0.58480561,-0.349527 -0.38299166,0.08033 c -0.21064514,0.04418 -0.4074875,0.104829 -0.43742709,0.134769 -0.0299389,0.02994 0.32674167,0.52716 0.79262431,1.104935 0.72039935,0.8934212 0.86378885,1.0385872 0.95894165,0.970824 0.061535,-0.043822 0.3531292,-0.3025278 0.6479861,-0.5749 z m 7.797267,-0.511722 c 0.418152,-0.515625 0.781491,-0.973161 0.807421,-1.016748 0.03098,-0.05207 -0.103067,-0.11991 -0.390912,-0.197826 l -0.438058,-0.118576 -0.4815089,0.309683 c -0.2648306,0.170326 -0.7315098,0.444371 -1.0370653,0.608988 -0.3055556,0.164617 -0.5711806,0.312691 -0.5902778,0.329052 -0.019097,0.01636 0.2465278,0.2903407 0.5902778,0.6088407 0.4734382,0.4386618 0.643775,0.559084 0.7024243,0.4965889 0.042583,-0.045376 0.4195479,-0.5043771 0.8376989,-1.0200026 z m -2.975867,-1.766181 c 4.575763,-1.323244 7.046057,-3.226065 8.727453,-6.722595 0.643564,-1.338316 1.397636,-3.679959 1.769398,-5.494563 0.184007,-0.898153 0.182102,-0.947217 -0.03678,-0.947217 -0.259913,0 -0.570287,-0.18324 -0.684511,-0.404126 -0.05502,-0.106393 -0.148633,-0.566801 -0.208032,-1.02313 -0.210301,-1.615603 -0.560233,-2.320407 -1.306639,-2.631724 -0.324747,-0.135447 -0.303328,-0.141392 -0.300107,0.08329 0.0025,0.178036 -0.01843,0.192101 -0.309762,0.207639 -2.279514,0.121575 -4.000136,0.442404 -5.1476775,0.959842 -0.608891,0.274556 -0.8860063,0.340218 -1.0310591,0.244311 -0.086544,-0.05722 -0.075821,-0.09657 0.069445,-0.254814 0.2644979,-0.288134 1.1159176,-0.822727 1.6928046,-1.062886 0.961419,-0.40024 1.605948,-0.515343 2.923431,-0.522082 l 1.180556,-0.006 -0.160946,-0.321475 c -0.08852,-0.176811 -0.312476,-0.879936 -0.497683,-1.5625 -0.457089,-1.684576 -0.588392,-2.015641 -0.939757,-2.369498 -0.311107,-0.313312 -0.529117,-0.367317 -0.905356,-0.224271 -0.382117,0.14528 -1.932939,0.351435 -3.9198691,0.521078 -2.2079527,0.188514 -3.6536222,0.375552 -4.5714555,0.591447 -0.7241438,0.170334 -0.9613653,0.170567 -1.2391014,0.0012 l -0.2202792,-0.134315 -0.6477764,0.230808 c -0.356277,0.126945 -0.88867287,0.284103 -1.18310134,0.349241 -0.63151875,0.139714 -0.9195375,0.08013 -1.19499028,-0.247232 -0.1635125,-0.194323 -0.18769306,-0.201303 -0.47102288,-0.13595 -0.4461584,0.102909 -0.8087452,0.08649 -1.034475,-0.04686 -0.1109278,-0.06553 -0.2016868,-0.143651 -0.2016868,-0.173611 0,-0.1726 -0.1578966,0.002 -0.3433327,0.379556 -0.2598548,0.529144 -0.4205562,1.329693 -0.4205562,2.09504 0,0.462231 -0.031247,0.634122 -0.1623528,0.893087 -0.1584035,0.312887 -0.1588257,0.318663 -0.017361,0.237464 0.099811,-0.05729 0.5453222,-0.0808 1.4297139,-0.07545 1.15058538,0.007 1.35671108,0.02681 1.97420969,0.190119 0.37921805,0.10029 0.97296805,0.321045 1.31944441,0.490568 0.6009855,0.294047 1.4219848,0.883256 1.4804111,1.06245 0.058533,0.17952 -0.3143763,0.170506 -0.756368,-0.01828 -1.46985487,-0.627825 -2.94649446,-0.945471 -4.8663854,-1.046826 -0.950816,-0.0502 -1.0730181,-0.101922 -0.8990188,-0.380539 0.071106,-0.113858 0.06287,-0.121429 -0.075846,-0.06971 -0.085587,0.03191 -0.3064847,0.08018 -0.4908826,0.107271 -0.2428167,0.03567 -0.4092341,0.116077 -0.6034994,0.291584 -0.3889618,0.351404 -0.5532069,0.909231 -0.7222006,2.452809 -0.093811,0.856861 -0.097048,0.867143 -0.3443188,1.09375 -0.1372896,0.125816 -0.3125764,0.228756 -0.3895257,0.228756 -0.1961514,0 -0.1834611,0.18591 0.097179,1.423612 0.4300152,1.896485 1.1137646,3.920566 1.7739902,5.251485 1.1229744,2.263752 2.634657,3.830116 4.86392158,5.039864 0.95561532,0.51858 3.30415622,1.378685 4.51388892,1.653119 0.6840062,0.15517 1.4691993,0.09088 2.4878673,-0.203705 z m -3.529534,-3.141885 c -0.6019312,-0.0437 -1.7053278,-0.23968 -2.1361306,-0.379401 -0.4660319,-0.151147 -0.6119722,-0.308515 -0.5425652,-0.585052 0.077945,-0.310558 0.2615409,-0.335752 1.0093514,-0.138507 1.6619145,0.438353 4.5386618,0.423633 7.2574326,-0.03714 0.9140788,-0.154916 1.1120358,-0.126345 1.1867338,0.171279 0.06921,0.275766 -0.07103,0.440749 -0.442363,0.520385 -1.7261132,0.370184 -4.6036562,0.573959 -6.332459,0.448434 z m 1.2465174,-4.462925 c -0.2924591,-0.156557 -0.8058827,-0.695815 -0.9012167,-0.946562 -0.095275,-0.250593 -0.078563,-0.780202 0.034642,-1.097809 0.052837,-0.148241 0.2392541,-0.4772 0.4142597,-0.731021 0.2409764,-0.349502 0.3266007,-0.544597 0.3528451,-0.80396 0.019059,-0.188358 0.062326,-0.370142 0.096149,-0.403964 0.1112618,-0.111262 0.3152,-0.01591 0.383925,0.179509 0.098637,0.280474 -0.051187,0.758337 -0.4170541,1.330192 -0.3813452,0.596046 -0.4770188,0.916619 -0.3805174,1.274997 0.082431,0.306127 0.3318736,0.561953 0.7545785,0.77389 0.2555076,0.128108 0.296234,0.177591 0.2777778,0.337502 -0.027576,0.238918 -0.2682834,0.273036 -0.6153882,0.08723 z m 1.4745145,-0.285675 c -0.1232812,-0.04944 -0.1557618,-0.10931 -0.1388888,-0.256015 0.017447,-0.151697 0.062578,-0.196135 0.2171951,-0.213865 0.3525194,-0.04042 0.5500194,0.31653 0.2607826,0.471325 -0.153984,0.08241 -0.1297277,0.08251 -0.3390889,-0.0014 z m -7.9640875,-1.755408 c -0.6682479,-0.222191 -1.1276312,-0.620261 -1.4157777,-1.226815 -0.1538973,-0.323957 -0.1814445,-0.476833 -0.1814445,-1.006944 0,-0.580859 0.016919,-0.65621 0.2395681,-1.066904 0.1317625,-0.243048 0.3583125,-0.537331 0.5034451,-0.653963 0.1451327,-0.116631 0.2521493,-0.223786 0.2378146,-0.238121 -0.014335,-0.01433 -0.1940104,0.04867 -0.3992792,0.140018 -0.4580486,0.203829 -0.9337965,0.59267 -1.1935479,0.975516 -0.2232479,0.329043 -0.3641812,0.401895 -0.5845826,0.302184 -0.3712479,-0.167956 -0.1961729,-0.638775 0.4652298,-1.251118 1.0043716,-0.929871 2.6454632,-1.313644 4.06495421,-0.950599 0.65967847,0.168717 1.05429859,0.391139 1.57769239,0.889244 0.4598326,0.437615 0.5247048,0.580345 0.3706416,0.815476 -0.163193,0.249064 -0.3631819,0.210313 -0.6887715,-0.13346 -0.2754979,-0.290884 -0.78968749,-0.67011 -1.02325138,-0.75467 -0.0608528,-0.02203 0.0515285,0.122114 0.2497368,0.320322 0.49686738,0.496868 0.68011388,0.990746 0.64744378,1.744964 -0.038491,0.888577 -0.46210142,1.551304 -1.24525003,1.948155 -0.43516111,0.220513 -1.19602083,0.289224 -1.62462157,0.146715 z m 12.6140576,-0.04163 c -1.5511131,-0.577117 -2.0188152,-2.496385 -0.905253,-3.7148 0.194559,-0.212878 0.329906,-0.387051 0.300771,-0.387051 -0.126796,0 -0.7289443,0.444634 -0.9887367,0.730094 -0.1559562,0.171366 -0.34565,0.311573 -0.421543,0.311573 -0.1837695,0 -0.3562403,-0.181265 -0.3562403,-0.374405 0,-0.385869 0.9514764,-1.153877 1.787067,-1.442475 0.40278,-0.139112 0.598793,-0.161597 1.372655,-0.157456 0.783857,0.0042 0.97667,0.02925 1.463719,0.19021 0.694726,0.229593 1.450519,0.746123 1.83301,1.252729 0.31242,0.413797 0.35577,0.678546 0.136279,0.832283 -0.203016,0.142198 -0.39714,0.06739 -0.581022,-0.223895 -0.228258,-0.361585 -0.666791,-0.735544 -1.146562,-0.977732 -0.229208,-0.115703 -0.447543,-0.21037 -0.48519,-0.21037 -0.03765,0 0.08608,0.144546 0.274952,0.321213 0.511261,0.478225 0.725068,0.966288 0.726159,1.657628 10e-4,0.647362 -0.188416,1.140851 -0.622303,1.621112 -0.548879,0.607543 -1.608813,0.861164 -2.387762,0.571342 z m -17.2502242,1.853011 c -0.4929653,-1.29788 -1.0942834,-3.547089 -1.3042431,-4.878473 -0.1453583,-0.921741 -0.2664687,-1.403443 -0.4092215,-1.62763 -0.1533097,-0.240768 -1.1848438,0.762636 -1.5304785,1.488742 -0.6435069,1.351872 -0.3513479,3.021267 0.7064556,4.036687 0.4643903,0.445783 0.8606291,0.699838 1.3277757,0.851323 0.6838,0.221742 1.2685527,0.284267 1.2097118,0.129351 z m 24.3808722,-0.01878 c 0.628765,-0.14823 1.098483,-0.390559 1.567651,-0.808757 1.547982,-1.37981 1.615482,-3.698364 0.150481,-5.168832 -0.420524,-0.422092 -0.824285,-0.690972 -0.934919,-0.622597 -0.03205,0.01981 -0.08038,0.263275 -0.10738,0.541033 -0.07135,0.733848 -0.284426,1.911182 -0.518721,2.866124 -0.169769,0.691944 -0.785031,2.756483 -0.948163,3.181597 -0.05795,0.15102 0.184107,0.154518 0.791051,0.01143 z m -24.8239833,-6.992774 c 0.025144,-0.354585 0.1076257,-0.90311 0.1832916,-1.218945 0.2939223,-1.226849 0.7570125,-1.774845 1.6955799,-2.00646 l 0.4369035,-0.107817 0.043276,-0.773794 c 0.1236757,-2.211369 1.0212118,-3.47478 2.6721798,-3.761477 0.2929729,-0.05087 0.54423336,-0.08095 0.55835558,-0.06683 0.0411813,0.04118 -0.26500768,0.46008 -0.57027848,0.780202 -0.1547965,0.162326 -0.2571667,0.295139 -0.2274903,0.295139 0.2015709,0 1.53308892,-0.391089 1.90380142,-0.559178 0.24831458,-0.112591 0.46358541,-0.204711 0.47838125,-0.204711 0.0635306,0 -0.19577014,0.414577 -0.45709445,0.730816 -0.15590347,0.188664 -0.28346111,0.364266 -0.28346111,0.390224 0,0.06745 0.77734722,-0.117799 1.38888889,-0.330985 0.2864583,-0.09986 0.9874396,-0.396139 1.5577361,-0.658397 0.5702972,-0.262258 1.0492007,-0.464537 1.0642299,-0.449507 0.057653,0.05765 -0.3496375,0.587922 -0.6159625,0.801947 -0.1535035,0.123359 -0.2668146,0.236573 -0.2518014,0.251586 0.015013,0.01501 0.3061472,-0.03325 0.6469639,-0.107252 0.7565319,-0.164265 2.38995,-0.386826 3.6057784,-0.491305 2.1402952,-0.18392 3.6513553,-0.361232 4.2349793,-0.496945 0.90847,-0.211251 1.181015,-0.228124 1.530276,-0.09474 0.677047,0.258567 1.198118,1.062092 1.566195,2.415176 0.117065,0.43034 0.307817,1.116068 0.423892,1.523838 l 0.211048,0.741401 0.326121,0.07823 c 1.274635,0.30578 1.980257,1.45134 2.197176,3.567061 l 0.04873,0.475319 0.202682,-0.370633 c 0.229956,-0.420508 0.479533,-0.702186 0.795372,-0.897679 0.205141,-0.126975 0.22373,-0.175209 0.339358,-0.880553 0.159565,-0.973366 0.217318,-3.20222 0.105908,-4.087332 -0.111672,-0.887202 -0.370943,-1.933791 -0.640236,-2.584414 -0.840669,-2.031097 -2.342115,-3.234272 -4.249641,-3.405425 l -0.490924,-0.04405 -0.314358,-0.560425 c -0.425345,-0.758286 -0.751073,-1.185238 -1.285982,-1.685619 -1.060832,-0.992356 -2.29797,-1.611148 -3.933002,-1.967209 -0.618757,-0.134747 -0.9211931,-0.156667 -2.1439861,-0.155396 -1.2022528,0.0012 -1.533625,0.02523 -2.1311396,0.154258 -1.3222535,0.285516 -2.6474757,0.854436 -4.361916,1.872576 -0.42013889,0.249504 -1.3576389,0.740724 -2.0833333,1.091599 -1.1141695,0.538703 -1.422082,0.722897 -1.9791667,1.183939 -2.4414118,2.020507 -3.5381278,3.953894 -3.7546722,6.619066 -0.06841,0.841971 -0.028196,1.805771 0.1432319,3.432821 0.037051,0.351665 0.067908,0.709284 0.06857,0.794709 8.472e-4,0.109482 0.068765,0.183547 0.2301402,0.250974 0.2737452,0.114378 0.5496313,0.427751 0.7843264,0.8909 0.094731,0.186941 0.1976882,0.324163 0.2287952,0.304938 0.031106,-0.01923 0.07713,-0.325069 0.102275,-0.679653 z"
       id="path313"
       sodipodi:nodetypes="ssssssccscsssssssscsccssscscsssscssscccssssssssssssssssssssssssscssscssssscsssssscsssscsssssssssssscssssssssssssssssssccsscssssscssscsssssscsssssscsssssccssssssccsssssscssscsssccsscssssssssccsssssssssssssssssssssscsssccsssssscssssssssssssssssssssssssssscssssssssssssscsssscsscsccsssssssscsssssssscsscsssssscsssccssssssssccc" /></g></svg>
